# xmcd
#
# Track frame offsets:
#	150
#	9364
#	16650
#	21648
#	27632
#	33712
#	40179
#	45810
#	54107
#	60426
#	65736
#	71250
#	75975
#	81755
#	88026
#	95358
#	104331
#	110346
#	119413
#	124740
#	132945
#	140243
#	146780
#	152555
#	157666
#	163545
#	171888
#	177611
#	181991
#	187531
#
# Disc length: 2620 seconds
# Revision: 0
# Processed by: cddbd v1.5.2PL0 Copyright (c) Steve Scherf et al.
# Submitted via: dBpowerAMP V12.0
#
DISCID=820a3a1e
DTITLE=Various Artist - Appalachian Fiddle Breakdown
DYEAR=2009
DGENRE=Country
TTITLE0=Dewayne Wear - Black Mountain Rag
TTITLE1=Dewayne Wear - Old Joe Clark
TTITLE2=Fiddlin' Mutt Poston - Little Liza Jane
TTITLE3=Dewayne Wear - Mississippi Sawyer
TTITLE4=Dewayne Wear - Run Boy Run
TTITLE5=Fiddlin' Mutt Poston - Eighth Of January
TTITLE6=Dewayne Wear - Beaumont Rag
TTITLE7=Dewayne Wear - Sally Goodin
TTITLE8=Fiddlin' Mutt Poston - Soldier's Joy
TTITLE9=Dewayne Wear - Fire On The Mountain
TTITLE10=Dewayne Wear - The Irish Jig
TTITLE11=Fiddlin' Mutt Poston - Cripple Creek
TTITLE12=Dewayne Wear - Cotton Eyed Joe
TTITLE13=Dewayne Wear - Chicken Reel
TTITLE14=Fiddlin' Mutt Poston - Listen To The Mocking Bird
TTITLE15=Dewayne Wear - Whistle Rufus
TTITLE16=Dewayne Wear - Chinese Breakdown
TTITLE17=Fiddlin' Mutt Poston - Ragtime Annie
TTITLE18=Dewayne Wear - Devil's Dream
TTITLE19=Dewayne Wear - Red Wing
TTITLE20=Fiddlin' Mutt Poston - Cackling Hen
TTITLE21=Dewayne Wear - Gray Eagle
TTITLE22=Dewayne Wear - Sailors Hornpipe
TTITLE23=Fiddlin' Mutt Poston - Cindy
TTITLE24=Dewayne Wear - Draggin' The Bow
TTITLE25=Dewayne Wear - Stony Point Breakdown
TTITLE26=Fiddlin' Mutt Poston - Dance Around Molly
TTITLE27=Dewayne Wear - Turkey In The Straw
TTITLE28=Dewayne Wear - Girl I Left Behind
TTITLE29=Dewayne Wear - Orange Blossom Special
EXTD=
EXTT0=
EXTT1=
EXTT2=
EXTT3=
EXTT4=
EXTT5=
EXTT6=
EXTT7=
EXTT8=
EXTT9=
EXTT10=
EXTT11=
EXTT12=
EXTT13=
EXTT14=
EXTT15=
EXTT16=
EXTT17=
EXTT18=
EXTT19=
EXTT20=
EXTT21=
EXTT22=
EXTT23=
EXTT24=
EXTT25=
EXTT26=
EXTT27=
EXTT28=
EXTT29=
PLAYORDER=
